<?xml version="1.0" encoding="utf-8"?>
<!-- Generator: Adobe Illustrator 16.0.0, SVG Export Plug-In . SVG Version: 6.00 Build 0)  -->
<!DOCTYPE svg PUBLIC "-//W3C//DTD SVG 1.1//EN" "http://www.w3.org/Graphics/SVG/1.1/DTD/svg11.dtd">
<svg version="1.1" id="Calque_1" xmlns="http://www.w3.org/2000/svg" xmlns:xlink="http://www.w3.org/1999/xlink" x="0px" y="0px"
	 width="155px" height="60px" viewBox="0 0 155 60" enable-background="new 0 0 155 60" xml:space="preserve">
<symbol  id="Menu_-_REVOIR" viewBox="-105.49 5.28 146.423 55.181">
	<g>
		<path fill="#175DA7" d="M-66.92,28.433h-0.031h-0.281h-3.033h-22.982v25.252v3.033v0.28v0.033
			c0.004,0.716,0.148,1.954,0.328,1.957h0.002h-12.008h0.002c0.18-0.003,0.326-1.241,0.33-1.957v-0.033v-3.313V24.51v-3.315v-0.032
			c-0.004-0.716-0.15-1.953-0.33-1.957h-0.002h37.693c0.002,0,0.002,0,0.002,0h0.279h0.031c0.717-0.005,1.955-0.149,1.957-0.328
			c0,0,0-0.002,0-0.003v9.89v-0.002C-64.965,28.582-66.203,28.437-66.92,28.433"/>
		<path fill="#175DA7" d="M26.489,58.988H1.2l0,0c0.182-0.003,0.326-1.241,0.33-1.957v-0.033v-3.313V24.51v-3.315v-0.032
			c-0.004-0.716-0.148-1.953-0.33-1.957l0,0h12.008h-0.004c-0.18,0.004-0.324,1.241-0.328,1.957v0.032v0.28v3.035v9.292h13.613
			c9.529,0,14.445,5.824,14.445,12.557C40.934,53.089,36.018,58.988,26.489,58.988 M24.372,41.821H12.875v8.696h11.496
			c4.084,0,6.125-1.21,6.125-4.159C30.497,43.18,28.456,41.821,24.372,41.821"/>
		<path fill="#175DA7" d="M-64.215,6.082v0.004v0.639v4.328v0.638v0.007c0,0.138,0.027,0.374,0.064,0.374l0,0h-2.527
			c0.023-0.026-0.053-0.241-0.113-0.36c0,0-0.002-0.004-0.002-0.006l-0.119-0.238c-0.045-0.094-0.865-1.633-1.152-2.216
			c-0.092,0.229-0.783,1.593-1.064,2.222l-0.107,0.23c-0.002,0.002-0.002,0.004-0.004,0.006c-0.055,0.119-0.127,0.332-0.105,0.362
			h-2.5l0,0c0.035,0,0.062-0.236,0.062-0.374V11.69v-0.638V6.725V6.086V6.082c0-0.139-0.027-0.375-0.062-0.377h1.66l0,0
			c-0.035,0.002-0.062,0.238-0.064,0.377v0.004v0.053v0.586v3.525h0.031l2.082-4.183l2.156,4.183h0.029V6.725V6.086V6.082
			c-0.002-0.139-0.029-0.375-0.062-0.377h-0.004h1.867l0,0C-64.188,5.707-64.215,5.943-64.215,6.082"/>
		<path fill="#175DA7" d="M8.088,8.802c0-2.286-2.055-3.272-3.863-3.272c-1.811,0-3.863,0.986-3.863,3.272s2.053,3.27,3.863,3.27
			C6.034,12.071,8.088,11.088,8.088,8.802 M2.241,8.802c0-1.071,0.885-1.736,1.984-1.736c1.098,0,1.982,0.665,1.982,1.736
			c0,1.07-0.885,1.735-1.982,1.735C3.125,10.537,2.241,9.872,2.241,8.802"/>
		<path fill="#175DA7" d="M-4.085,12.071c0-0.034-0.238-0.062-0.377-0.062h-0.006h-0.051l0,0h-6.078h-0.002h-0.051h-0.006
			c-0.137,0-0.375,0.027-0.375,0.062l0,0V10.47l0,0c0,0.034,0.238,0.062,0.375,0.062h0.006h0.053h0.584h1.484V6.076
			c0-0.002,0-0.002,0-0.002v-0.05V6.017c-0.002-0.138-0.027-0.374-0.064-0.375l0,0h2.066l0,0C-6.56,5.643-6.589,5.879-6.589,6.017
			v0.008v0.05v0.002v4.455h1.484h0.586h0.051h0.006c0.139,0,0.377-0.027,0.377-0.062l0,0V12.071L-4.085,12.071z"/>
		<path fill="#175DA7" d="M-93.873,10.133c0,0.637,1.289,0.637,1.65,0.637c0.744,0,1.521-0.23,1.844-0.402v0.001l0.074-0.04
			c0,0,0.002,0,0.004-0.002c0.115-0.058,0.291-0.176,0.307-0.218l0.74,1.552c-0.033-0.026-0.25-0.007-0.377,0.017
			c-0.002,0.001-0.004,0.001-0.006,0.001l-0.174,0.033c-0.451,0.07-1.518,0.36-2.73,0.36c-2.357,0-3.211-1.259-3.211-2.157
			c0-2.429,4.73-1.33,4.73-2.457c0-0.565-0.953-0.623-1.318-0.623c-0.988,0-2.328,0.269-2.721,0.578l-0.045,0.031
			c-0.002,0-0.004,0.002-0.006,0.003c-0.104,0.069-0.264,0.205-0.277,0.251l-0.486-1.592c0.035,0.023,0.25-0.006,0.373-0.037
			c0.002,0,0.004,0,0.006-0.001l0.078-0.021c0.252-0.047,1.777-0.516,3.094-0.516c2.213,0,3.186,0.985,3.186,2.113
			C-89.139,10.162-93.873,9.107-93.873,10.133"/>
		<path fill="#175DA7" d="M-85.945,10.133c0,0.637,1.287,0.637,1.648,0.637c0.744,0,1.521-0.23,1.844-0.402v0.001l0.074-0.04
			c0.002,0,0.006,0,0.008-0.002c0.111-0.058,0.287-0.176,0.303-0.218l0.74,1.552c-0.031-0.026-0.25-0.007-0.377,0.017
			c-0.004,0.001-0.004,0.001-0.008,0.001l-0.17,0.033c-0.453,0.07-1.52,0.36-2.73,0.36c-2.359,0-3.215-1.259-3.215-2.157
			c0-2.429,4.734-1.33,4.734-2.457c0-0.565-0.955-0.623-1.316-0.623c-0.99,0-2.33,0.269-2.725,0.578l-0.045,0.031
			c-0.002,0-0.004,0.002-0.004,0.002c-0.105,0.07-0.266,0.206-0.277,0.252l-0.488-1.592c0.035,0.023,0.248-0.006,0.373-0.037
			c0.004,0,0.004,0,0.006-0.001l0.078-0.021c0.254-0.047,1.777-0.516,3.094-0.516c2.217,0,3.184,0.985,3.184,2.113
			C-81.215,10.162-85.945,9.107-85.945,10.133"/>
		<path fill="#175DA7" d="M-20.398,5.717v0.582v5.604v0.583v0.054v0.007c0,0.137,0.029,0.375,0.062,0.375h0.002h-2.074l0,0
			c0.033,0,0.061-0.238,0.064-0.375V12.54v-0.637V8.607c-0.592,0.648-1.688,1.822-2.502,2.725l-0.848,0.951
			c-0.002,0.002-0.006,0.006-0.008,0.01c-0.168,0.189-0.416,0.541-0.41,0.629h-0.699h-1.816c0.037,0,0.064-0.238,0.064-0.375V12.54
			v-0.637l0,0V6.299l0,0V5.662V5.656c0-0.138-0.027-0.375-0.064-0.377v0.002h2.074V5.279c-0.035,0.002-0.062,0.239-0.062,0.377
			v0.006v0.637v3.979c3.172-3.545,3.969-4.286,4.148-4.545c0.154-0.194,0.303-0.417,0.266-0.452h0.484h0.775h0.191l0.414-0.002
			c-0.033,0.002-0.062,0.239-0.062,0.377v0.006V5.717z"/>
		<path fill="#175DA7" d="M16.51,5.705c-0.033,0.002-0.061,0.238-0.062,0.375v0.006v0.053l0,0v5.5v0.053v0.006
			c0.002,0.138,0.029,0.373,0.062,0.374l0,0h-1.863l0,0c0.035-0.001,0.062-0.236,0.064-0.374v-0.006v-0.053v-0.586V8.787
			c-0.549,0.592-2.164,2.307-2.342,2.504l-0.139,0.148c-0.002,0.004-0.006,0.006-0.01,0.01c-0.172,0.189-0.43,0.54-0.424,0.622
			h-2.52l0,0c0.035-0.001,0.062-0.236,0.066-0.374v-0.006v-0.639V6.725V6.086V6.08C9.34,5.943,9.313,5.707,9.278,5.705l0,0h1.863
			c-0.033,0.002-0.061,0.238-0.062,0.375v0.006v0.639V9.93l0.029,0.031c1.105-1.294,2.311-2.465,2.975-3.192l0.398-0.423
			c0.002-0.002,0.006-0.005,0.008-0.008c0.188-0.2,0.471-0.581,0.426-0.633h1.369H16.51L16.51,5.705z"/>
		<path fill="#175DA7" d="M-49.078,7.244c0-0.033-0.238-0.062-0.375-0.064h-0.008h-0.053h-0.584h-2.744v4.459l0,0v0.052v0.007
			c0,0.138,0.027,0.374,0.064,0.374l0,0h-2.064l0,0c0.033,0,0.059-0.236,0.062-0.374V11.69v-0.052l0,0v-5.5l0,0V6.086V6.082
			c-0.004-0.139-0.029-0.375-0.062-0.377l0,0h5.328h0.002h0.051h0.008c0.137-0.002,0.375-0.029,0.375-0.062V5.642V7.244
			L-49.078,7.244z"/>
		<path fill="#175DA7" d="M32.872,7.244c0-0.033-0.238-0.062-0.375-0.064h-0.006h-0.053h-0.584H29.11v4.459l0,0v0.052v0.007
			c0.002,0.138,0.029,0.374,0.062,0.374l0,0h-2.066l0,0c0.037,0,0.064-0.236,0.064-0.374V11.69v-0.052l0,0v-5.5l0,0V6.086V6.082
			c0-0.139-0.027-0.375-0.064-0.377h5.332h0.053h0.006c0.137-0.002,0.375-0.029,0.375-0.062V5.642V7.244L32.872,7.244z"/>
		<path fill="#175DA7" d="M-0.892,6.082v0.004v0.053v0.586v4.328v0.586v0.052v0.007c0,0.138,0.029,0.374,0.062,0.374l0,0h-2.064l0,0
			c0.033,0,0.062-0.236,0.062-0.374V11.69v-0.638V6.725V6.086V6.082c0-0.139-0.029-0.375-0.062-0.377l0,0h2.064
			C-0.863,5.707-0.892,5.943-0.892,6.082"/>
		<path fill="#175DA7" d="M-73.795,10.799L-73.795,10.799h0.053h0.004c0.139-0.002,0.377-0.029,0.377-0.063v-0.001v1.4
			c0-0.035-0.238-0.063-0.377-0.063h-0.004h-0.053h-6.229l0,0c0.035-0.001,0.062-0.237,0.066-0.374V11.69v-0.052v-0.586V6.725V6.139
			V6.086V6.082c-0.004-0.139-0.031-0.374-0.064-0.377h5.643h0.469h0.168h0.004c0.139-0.002,0.377-0.029,0.377-0.063l0,0v1.401V7.042
			c0-0.036-0.238-0.063-0.377-0.064h-0.004h-0.166h-0.002h-4.111v1.435h2.137h0.637h0.006c0.137-0.001,0.375-0.029,0.375-0.064
			v1.342c0-0.034-0.238-0.062-0.375-0.062h-0.006h-0.053h-0.584h-2.137v1.172H-73.795z"/>
		<path fill="#175DA7" d="M-33.426,12.071h-0.006h-0.053h-6.229h0.002c0.033-0.001,0.062-0.237,0.062-0.374V11.69v-0.052v-0.586
			V6.725V6.139V6.086V6.082c0-0.139-0.029-0.374-0.062-0.377h5.643h0.469h0.168h0.006c0.139-0.002,0.375-0.029,0.377-0.062v1.399
			c-0.002-0.036-0.238-0.063-0.377-0.064h-0.006h-0.166H-33.6h-4.111v1.435h2.139h0.637h0.006c0.137-0.001,0.373-0.029,0.375-0.064
			v1.342c-0.002-0.034-0.238-0.062-0.375-0.062h-0.006h-0.053h-0.584h-2.139v1.172h4.227l0,0h0.053h0.006
			c0.139-0.002,0.375-0.029,0.377-0.063v1.4C-33.051,12.1-33.287,12.071-33.426,12.071"/>
		<path fill="#175DA7" d="M40.29,10.799h0.002h0.051h0.008c0.137-0.002,0.375-0.029,0.375-0.063v-0.001v1.4
			c0-0.035-0.238-0.063-0.375-0.063h-0.008H40.29h-6.227l0,0c0.035-0.001,0.062-0.237,0.062-0.374V11.69v-0.052v-0.586V6.725V6.139
			V6.086V6.082c0-0.139-0.027-0.374-0.062-0.377h5.643h0.469h0.168h0.008c0.137-0.002,0.375-0.029,0.375-0.063l0,0v1.401V7.042
			c0-0.036-0.238-0.063-0.375-0.064h-0.008h-0.166h-0.002h-4.109v1.435H38.2h0.639h0.006c0.137-0.001,0.375-0.029,0.375-0.064v1.342
			c0-0.034-0.238-0.062-0.375-0.062h-0.006h-0.053H38.2h-2.135v1.172H40.29z"/>
		<path fill="#175DA7" d="M-99.066,6.074l0.164-0.412C-98.9,5.66-98.9,5.658-98.9,5.656c0.051-0.129,0.113-0.359,0.08-0.373l0,0
			l-0.006-0.002h2.406c-0.045,0.035-0.139,0.207-0.184,0.316c-0.002,0.002-0.002,0.004-0.004,0.005l-0.24,0.589l0,0
			c-0.879,2.148-2.381,5.809-2.549,6.31l-0.016,0.041c0,0.001-0.002,0.005-0.002,0.005c-0.049,0.129-0.105,0.361-0.074,0.374v0.001
			h0.002h-3.109h0.002v-0.001c0.031-0.013-0.025-0.245-0.072-0.374c-0.002-0.002-0.002-0.004-0.002-0.007l-0.043-0.11
			c-0.369-1.033-2.406-6.336-2.527-6.641c-0.01-0.028-0.021-0.055-0.031-0.078l-0.041-0.104c0-0.001-0.002-0.005-0.002-0.006
			c-0.043-0.11-0.131-0.284-0.178-0.32h2.121c-0.029,0.016,0.023,0.245,0.068,0.373c0,0.002,0.002,0.004,0.002,0.006l0.016,0.037
			c0.023,0.084,0.074,0.225,0.168,0.482l0.031,0.081V6.26c0.064,0.173,0.143,0.395,0.242,0.678h3.443
			C-99.363,6.826-99.197,6.408-99.066,6.074 M-102.479,8.098l1.293,3.459l1.41-3.459H-102.479z"/>
		<path fill="#175DA7" d="M-10.929,5.705c-0.039,0.018-0.141,0.188-0.193,0.303c-0.004,0.006-0.006,0.009-0.01,0.017
			c-0.025,0.058-0.051,0.118-0.078,0.184l-0.059,0.132c-0.643,1.436-2.035,4.26-2.424,5.146l-0.094,0.212
			c-0.002,0-0.002,0.003-0.004,0.005c-0.057,0.125-0.129,0.353-0.098,0.366l0,0l0.004,0.003h-2.455
			c0.016-0.04-0.045-0.246-0.094-0.36c-0.004-0.004-0.004-0.006-0.004-0.008l-0.131-0.309c-0.338-0.814-1.289-2.854-2.184-4.916
			l-0.023-0.062c-0.057-0.131-0.115-0.263-0.172-0.393c0-0.005-0.004-0.008-0.004-0.011c-0.053-0.114-0.154-0.288-0.193-0.309h1.775
			c-0.021,0.028,0.051,0.244,0.107,0.363c0,0.002,0.002,0.004,0.002,0.006l0.076,0.159c0.104,0.237,0.287,0.574,0.348,0.759h3.361
			c0.059-0.15,0.186-0.401,0.287-0.619l0.145-0.299c0.002-0.002,0.002-0.005,0.002-0.007c0.057-0.118,0.131-0.332,0.109-0.362
			H-10.929z M-16.371,8.034l1.186,2.892l1.217-2.892H-16.371z"/>
		<path fill="#175DA7" d="M25.917,5.705c-0.039,0.018-0.141,0.188-0.195,0.303c-0.002,0.006-0.006,0.009-0.008,0.017
			c-0.023,0.058-0.053,0.118-0.08,0.184L25.575,6.34c-0.641,1.436-2.033,4.26-2.42,5.146l-0.098,0.212c0,0,0,0.003-0.002,0.005
			c-0.057,0.125-0.131,0.353-0.1,0.366l0.004,0.003h-2.453c0.016-0.04-0.047-0.246-0.094-0.36c-0.004-0.004-0.004-0.006-0.004-0.008
			l-0.131-0.309c-0.34-0.814-1.291-2.854-2.184-4.916l-0.025-0.062c-0.057-0.131-0.113-0.263-0.17-0.393
			c0-0.005-0.004-0.008-0.004-0.011C17.84,5.899,17.741,5.726,17.7,5.705h1.777c-0.023,0.028,0.051,0.244,0.107,0.363
			c0,0.002,0,0.004,0.002,0.006l0.076,0.159c0.102,0.237,0.289,0.574,0.35,0.759h3.357c0.059-0.15,0.189-0.401,0.289-0.619
			l0.145-0.299c0-0.002,0.002-0.005,0.002-0.007c0.057-0.118,0.131-0.332,0.109-0.362H25.917z M20.475,8.034l1.188,2.892
			l1.215-2.892H20.475z"/>
		<path fill="#175DA7" d="M-57.207,9.105c0.521,0.245,0.955,0.78,0.955,1.39c0,1.289-0.693,1.576-2.43,1.576h-3.955l0,0
			c0.033,0,0.062-0.236,0.062-0.374v-0.006v-0.639V6.725V6.086V6.082c0-0.139-0.029-0.375-0.062-0.377l0,0h4.012
			c1.824,0,2.592,0.723,2.592,1.852C-56.033,8.396-56.439,8.859-57.207,9.105 M-60.635,10.857h1.721
			c0.639,0,0.957-0.116,0.957-0.695c0-0.377-0.203-0.694-0.957-0.694h-1.721V10.857z M-59.059,6.921h-1.576v1.562h1.576
			c0.564,0,1.201,0,1.201-0.782C-57.857,7.123-58.393,6.921-59.059,6.921"/>
		<polygon fill="#175DA7" points="-43.314,12.836 -42.236,14.086 -44.223,14.086 -45.326,12.836 		"/>
		<path fill="#175DA7" d="M-44.934,12.07h-0.002h-2.953l0,0c0.035-0.002,0.064-0.238,0.064-0.373V11.69v-0.052v-0.587V6.724V6.139
			V6.086V6.08c0-0.137-0.029-0.372-0.064-0.375h5.645h0.469h0.168h0.006c0.137-0.002,0.375-0.029,0.375-0.063v1.4
			c0-0.036-0.238-0.063-0.375-0.064h-0.006h-0.168l0,0h-4.111v1.434h2.137h0.637h0.006c0.139-0.003,0.377-0.03,0.377-0.063v1.342
			c0-0.034-0.238-0.062-0.377-0.062h-0.006h-0.053h-0.584h-2.137v1.17h4.227l0,0h0.053h0.006c0.137,0,0.375-0.027,0.375-0.062v1.399
			c0-0.033-0.238-0.062-0.375-0.063h-0.006h-0.053h-1.26"/>
		<path fill="#175DA7" d="M-17.964,33.295c-0.398-0.459-0.838-0.885-1.32-1.273c-0.037-0.031-0.072-0.059-0.105-0.087
			c-0.01-0.009-0.018-0.015-0.027-0.022l-0.352-0.285l-0.002,0.002c-0.225-0.179-0.5-0.354-0.816-0.523
			c-3.346-2.061-7.914-2.888-11.85-2.888l0,0h-0.002c-6.432,0-14.772,2.78-14.772,10.88c0,8.102,8.34,10.88,14.772,10.88
			c0.182,0,0.361-0.002,0.539-0.003c3.383-0.042,7.066-0.475,10.051-1.803c0.551-0.23,1.014-0.471,1.377-0.712
			c0.809-0.481,1.541-1.047,2.174-1.712l6.059,11.108c-0.295-0.069-1.357,0.149-1.986,0.349c-0.01,0.004-0.02,0.006-0.031,0.011
			l-2.912,0.938c-0.623,0.191-1.34,0.406-2.164,0.639c-3.178,0.874-7.705,1.668-14.059,1.668c-12.707,0-26.207-7.146-26.207-21.363
			s13.5-21.363,26.207-21.363c7.795,0,13.659,1.861,17.208,3.131v0.001l0.934,0.337c0.49,0.18,0.918,0.336,1.291,0.465l1.051,0.379
			c0.012,0.005,0.021,0.008,0.031,0.012c0.662,0.234,1.818,0.509,2.021,0.4L-17.964,33.295z"/>
	</g>
</symbol>
<use xlink:href="#Menu_-_REVOIR"  width="146.423" height="55.181" id="XMLID_6_" x="-105.49" y="5.28" transform="matrix(1 0 0 -1 109.7666 63.3701)" overflow="visible"/>
</svg>
